<?xml version="1.0" encoding="UTF-8"?>
<!DOCTYPE svg PUBLIC "-//W3C//DTD SVG 1.1//EN" "http://www.w3.org/Graphics/SVG/1.1/DTD/svg11.dtd">
<!-- Creator: CorelDRAW 2019 (64-Bit) -->
<svg xmlns="http://www.w3.org/2000/svg" xml:space="preserve" width="35.0951mm" height="8.2613mm" version="1.1" style="shape-rendering:geometricPrecision; text-rendering:geometricPrecision; image-rendering:optimizeQuality; fill-rule:evenodd; clip-rule:evenodd"
viewBox="0 0 32.15 7.57"
 xmlns:xlink="http://www.w3.org/1999/xlink"
 xmlns:xodm="http://www.corel.com/coreldraw/odm/2003">
 <defs>
  <style type="text/css">
   <![CDATA[
    .fil0 {fill:black}
   ]]>
  </style>
 </defs>
 <g id="Слой_x0020_1">
  <metadata id="CorelCorpID_0Corel-Layer"/>
  <g id="_3105385320400">
   <path class="fil0" d="M8.26 7.56l1.74 0 0 -5.19 3.42 4.57c0.08,0.1 0.41,0.63 0.51,0.63l1.68 0 0 -7.56 -1.74 0 0 5.19c-0.08,-0.06 -2.37,-3.16 -2.44,-3.26l-1.33 -1.79c-0.1,-0.14 -0.08,-0.15 -0.15,-0.15l-1.68 0 0 7.56z"/>
   <polygon class="fil0" points="16.54,1.53 19.36,1.53 19.36,6.03 16.54,6.03 16.54,7.56 23.89,7.56 23.89,6.03 21.07,6.03 21.07,1.53 23.89,1.53 23.89,0 16.54,0 "/>
   <path class="fil0" d="M-0 4.35c0,0.74 0.48,1.74 1,2.21l0.45 0.36c0.19,0.13 0.3,0.19 0.51,0.3 0.8,0.4 1.29,0.34 2.15,0.34 0.41,-0.01 0.97,-0.19 1.28,-0.34 0.21,-0.11 0.33,-0.17 0.51,-0.3 0.07,-0.05 0.16,-0.11 0.22,-0.17 0.7,-0.63 1.22,-1.45 1.22,-2.47l0 -4.29 -1.59 0c0,0.39 0.03,0.66 0.03,1.05l0 2.97c0,0.54 -0.15,1.09 -0.5,1.45 -0.17,0.18 -0.33,0.32 -0.55,0.44 -0.08,0.04 -0.25,0.11 -0.34,0.14 -0.49,0.14 -1.34,0.1 -1.77,-0.13 -0.23,-0.12 -0.38,-0.26 -0.55,-0.44 -0.31,-0.32 -0.52,-0.81 -0.52,-1.43l0 -4.05 -1.56 0 0 4.35z"/>
   <path class="fil0" d="M24.8 7.56l7.35 0 0 -1.5 -5.61 0 0 -1.53 3.87 0 0 -1.44c0,-0.07 -0.02,-0.09 -0.09,-0.09l-5.52 0 0 4.56z"/>
   <polygon class="fil0" points="24.8,1.53 32.15,1.53 32.15,0 24.8,0 "/>
  </g>
 </g>
</svg>
